<?xml version="1.0" encoding="utf-8"?>
<!-- Generator: Adobe Illustrator 16.0.0, SVG Export Plug-In . SVG Version: 6.00 Build 0)  -->
<!DOCTYPE svg PUBLIC "-//W3C//DTD SVG 1.1//EN" "http://www.w3.org/Graphics/SVG/1.1/DTD/svg11.dtd">
<svg version="1.1" id="Layer_1" xmlns="http://www.w3.org/2000/svg" xmlns:xlink="http://www.w3.org/1999/xlink" x="0px" y="0px"
	 width="214.339px" height="60.394px" viewBox="0 0 214.339 60.394" enable-background="new 0 0 214.339 60.394"
	 xml:space="preserve">
<g>
	<circle fill="#63BC46" cx="56.872" cy="22.777" r="4.102"/>
	<path fill="#F15A29" d="M41.698,37.473c1.586-2.549,2.504-5.564,2.504-8.785c0-9.219-7.473-16.691-16.686-16.691
		c-9.219,0-16.686,7.473-16.686,16.691c0,1.506,0.201,2.967,0.582,4.354h-0.01c0,0,0.011,0.035,0.027,0.09
		c0.675,2.443,1.888,4.658,3.507,6.518c1.103,1.436,2.511,2.916,4.271,4.256c0.058,0.043,0.108,0.086,0.168,0.127
		c0.065,0.049,0.135,0.1,0.197,0.148c2.103,1.547,5.198,3.221,9.366,3.898c0.029,0.012,0.061,0.014,0.097,0.021
		c0.863,0.15,1.558,0.227,2.089,0.236c2.214,0.154,4.693,0.029,7.416-0.518c15.575-3.109,22.306-24.023,22.306-24.023
		S50.887,42.795,41.698,37.473z"/>
	<path fill="#0099A5" d="M68.987,15.383c-0.566,0.299-1.104,0.672-1.59,1.121c-2.46,2.27-3.639,6.354-4.521,9.438
		c0,0-2.938,9.936-5.439,7.113c0,0-3.299-8.326-11.913-7.848c0,0,5.297,0.939,7.041,10.889c1.533,8.715,6.155,8.09,6.155,8.09
		s5.918-0.316,6.583-10.865c0.26-4.09,3.552-7.93,7.517-8.748c3.02-0.617,5.525,0.623,6.604-3.227
		c0.558-1.992-0.075-3.836-1.693-5.104C75.248,14.311,71.734,13.957,68.987,15.383z"/>
</g>
<g>
	<g>
		<path fill="#414042" d="M91.598,21.829h14.32L94.877,39.112h10.686v2.222H90.551l11.043-17.296h-9.996V21.829z"/>
	</g>
	<g>
		<path fill="#414042" d="M128.222,21.829v19.505h-2.473v-3.352c-1.055,1.28-2.237,2.237-3.538,2.891
			c-1.314,0.642-2.742,0.961-4.293,0.961c-2.761,0-5.122-0.996-7.081-2.996c-1.951-2.009-2.923-4.44-2.923-7.308
			c0-2.81,0.975-5.208,2.947-7.21c1.975-1.993,4.356-2.99,7.127-2.99c1.596,0,3.043,0.332,4.342,1.02
			c1.295,0.68,2.445,1.704,3.419,3.063v-3.584H128.222z M118.19,23.75c-1.394,0-2.684,0.338-3.868,1.031
			c-1.182,0.682-2.126,1.646-2.821,2.892c-0.7,1.233-1.039,2.555-1.039,3.938c0,1.369,0.358,2.689,1.05,3.94
			c0.709,1.257,1.65,2.226,2.838,2.934c1.187,0.691,2.467,1.04,3.836,1.04c1.357,0,2.662-0.349,3.9-1.038
			c1.216-0.691,2.168-1.626,2.824-2.809c0.668-1.188,0.993-2.517,0.993-3.997c0-2.258-0.735-4.137-2.224-5.66
			C122.191,24.504,120.363,23.75,118.19,23.75z"/>
	</g>
	<g>
		<path fill="#414042" d="M146.88,21.829h2.503v9.104c0,2.226,0.116,3.757,0.364,4.594c0.356,1.194,1.044,2.143,2.044,2.834
			c1.021,0.692,2.221,1.037,3.621,1.037c1.408,0,2.6-0.334,3.57-1.007c0.977-0.679,1.646-1.569,2.021-2.668
			c0.259-0.754,0.37-2.348,0.37-4.79v-9.104h2.57v9.573c0,2.696-0.31,4.716-0.939,6.084c-0.627,1.356-1.569,2.427-2.83,3.199
			c-1.266,0.769-2.842,1.148-4.744,1.148c-1.898,0-3.49-0.38-4.763-1.148c-1.271-0.772-2.226-1.848-2.847-3.229
			c-0.633-1.381-0.94-3.456-0.94-6.234V21.829z"/>
	</g>
	<g>
		<path fill="#414042" d="M188.518,21.829v19.505h-2.473v-3.352c-1.059,1.28-2.236,2.237-3.55,2.891
			c-1.306,0.642-2.741,0.961-4.294,0.961c-2.76,0-5.116-0.996-7.064-2.996c-1.965-2.009-2.938-4.44-2.938-7.308
			c0-2.81,0.987-5.208,2.96-7.21c1.977-1.993,4.341-2.99,7.125-2.99c1.59,0,3.047,0.332,4.346,1.02
			c1.291,0.68,2.43,1.704,3.416,3.063v-3.584H188.518z M178.477,23.75c-1.395,0-2.684,0.338-3.86,1.031
			c-1.181,0.682-2.13,1.646-2.825,2.892c-0.691,1.233-1.045,2.555-1.045,3.938c0,1.369,0.354,2.689,1.051,3.94
			c0.706,1.257,1.659,2.226,2.843,2.934c1.182,0.691,2.466,1.04,3.827,1.04c1.369,0,2.677-0.349,3.9-1.038
			c1.22-0.691,2.173-1.626,2.834-2.809c0.664-1.188,0.998-2.517,0.998-3.997c0-2.258-0.744-4.137-2.222-5.66
			C182.49,24.504,180.652,23.75,178.477,23.75z"/>
	</g>
	<g>
		<path fill="#414042" d="M193.66,21.829h2.561v2.854c0.769-1.126,1.566-1.966,2.416-2.518c0.846-0.565,1.74-0.836,2.648-0.836
			c0.699,0,1.441,0.221,2.223,0.66l-1.307,2.119c-0.527-0.228-0.971-0.347-1.323-0.347c-0.835,0-1.642,0.347-2.425,1.032
			c-0.766,0.696-1.365,1.759-1.773,3.201c-0.314,1.107-0.459,3.362-0.459,6.737v6.601h-2.561V21.829z"/>
	</g>
	<g>
		<path fill="#414042" d="M142.628,24.32v-2.28h-3.856v-3.48h-2.646v3.48h-3.303v2.28h3.303v12.798
			c-0.023,1.652,0.289,2.805,0.925,3.433c0.646,0.631,1.774,0.953,3.354,0.953c0.338,0,0.688-0.015,1.035-0.039
			c0.336-0.029,0.684-0.034,1.023-0.034h0.165v-2.296l-0.183,0.02c-0.656,0.071-1.319,0.104-1.963,0.104
			c-0.762-0.043-1.237-0.251-1.424-0.617c-0.188-0.401-0.287-0.985-0.287-1.712V24.32H142.628z"/>
	</g>
</g>
</svg>
