<?xml version="1.0" encoding="utf-8"?>
<!-- Generator: Adobe Illustrator 16.0.0, SVG Export Plug-In . SVG Version: 6.00 Build 0)  -->
<!DOCTYPE svg PUBLIC "-//W3C//DTD SVG 1.1//EN" "http://www.w3.org/Graphics/SVG/1.1/DTD/svg11.dtd">
<svg version="1.1" id="Layer_1" xmlns="http://www.w3.org/2000/svg" xmlns:xlink="http://www.w3.org/1999/xlink" x="0px" y="0px"
	 width="29.583px" height="23.625px" viewBox="0 0 29.583 23.625" enable-background="new 0 0 29.583 23.625" xml:space="preserve">
<g>
	<ellipse fill="#63BC46" cx="19.585" cy="8.485" rx="1.688" ry="1.839"/>
	<path fill="#F15A29" d="M13.339,15.076c0.653-1.144,1.031-2.496,1.031-3.94c0-4.134-3.075-7.485-6.868-7.485
		s-6.867,3.352-6.867,7.485c0,0.676,0.082,1.331,0.239,1.952H0.871c0,0,0.004,0.017,0.01,0.04c0.279,1.097,0.778,2.089,1.444,2.924
		c0.454,0.644,1.033,1.308,1.758,1.907c0.023,0.021,0.045,0.04,0.069,0.058c0.026,0.022,0.056,0.046,0.08,0.067
		c0.866,0.694,2.141,1.443,3.856,1.747c0.011,0.006,0.024,0.007,0.039,0.011c0.355,0.067,0.642,0.102,0.859,0.105
		c0.911,0.069,1.933,0.013,3.053-0.231c6.411-1.395,9.182-10.774,9.182-10.774S17.121,17.463,13.339,15.076z"/>
	<path fill="#0099A5" d="M24.572,5.169c-0.234,0.134-0.455,0.301-0.655,0.503c-1.013,1.017-1.497,2.849-1.86,4.233
		c0,0-1.21,4.454-2.24,3.189c0,0-1.357-3.735-4.902-3.52c0,0,2.18,0.42,2.898,4.884c0.631,3.908,2.533,3.627,2.533,3.627
		s2.436-0.142,2.708-4.872c0.108-1.836,1.464-3.558,3.096-3.923c1.242-0.278,2.273,0.278,2.716-1.448
		c0.23-0.894-0.029-1.721-0.695-2.289C27.147,4.688,25.702,4.531,24.572,5.169z"/>
</g>
</svg>
